<?xml version="1.0" encoding="UTF-8" standalone="no"?>
<!-- Created with Inkscape (http://www.inkscape.org/) -->

<svg
   xmlns:dc="http://purl.org/dc/elements/1.1/"
   xmlns:cc="http://creativecommons.org/ns#"
   xmlns:rdf="http://www.w3.org/1999/02/22-rdf-syntax-ns#"
   xmlns:svg="http://www.w3.org/2000/svg"
   xmlns="http://www.w3.org/2000/svg"
   xmlns:sodipodi="http://sodipodi.sourceforge.net/DTD/sodipodi-0.dtd"
   xmlns:inkscape="http://www.inkscape.org/namespaces/inkscape"
   width="88.740082mm"
   height="40.009476mm"
   viewBox="0 0 314.43336 141.76585"
   id="svg2"
   version="1.1"
   inkscape:version="0.91 r13725"
   sodipodi:docname="logo.svg">
  <defs
     id="defs4" />
  <sodipodi:namedview
     id="base"
     pagecolor="#ffffff"
     bordercolor="#666666"
     borderopacity="1.0"
     inkscape:pageopacity="0.0"
     inkscape:pageshadow="2"
     inkscape:zoom="1.4"
     inkscape:cx="315.83544"
     inkscape:cy="-41.309376"
     inkscape:document-units="px"
     inkscape:current-layer="layer1"
     showgrid="false"
     fit-margin-top="0"
     fit-margin-left="0"
     fit-margin-right="0"
     fit-margin-bottom="0"
     inkscape:window-width="1920"
     inkscape:window-height="1017"
     inkscape:window-x="-8"
     inkscape:window-y="-8"
     inkscape:window-maximized="1" />
  <metadata
     id="metadata7">
    <rdf:RDF>
      <cc:Work
         rdf:about="">
        <dc:format>image/svg+xml</dc:format>
        <dc:type
           rdf:resource="http://purl.org/dc/dcmitype/StillImage" />
        <dc:title></dc:title>
      </cc:Work>
    </rdf:RDF>
  </metadata>
  <g
     inkscape:label="Layer 1"
     inkscape:groupmode="layer"
     id="layer1"
     transform="translate(72.857136,-103.76501)">
    <g
       style="font-style:normal;font-weight:normal;font-size:40px;line-height:125%;font-family:sans-serif;letter-spacing:0px;word-spacing:0px;fill:#000000;fill-opacity:1;stroke:none;stroke-width:1px;stroke-linecap:butt;stroke-linejoin:miter;stroke-opacity:1"
       id="text4136"
       transform="matrix(3.5441466,0,0,3.5441466,-214.623,-444.32989)">
      <path
         d="m 58,160.08792 q 0.48,-1.28 0.72,-2.64 0.28,-1.36 0.36,-2.8 l 4.6,0 0,40 -5.04,0 0,-25.88 q -0.68,1.04 -1.36,2.04 -0.64,0.96 -1.32,1.96 -0.36,0.52 -0.72,1.04 -0.36,0.48 -0.68,1 -0.76,1.08 -1.44,2.16 -0.68,1.08 -1.28,2.24 -0.6,-1.16 -1.28,-2.24 -0.68,-1.08 -1.44,-2.16 -0.32,-0.52 -0.68,-1 -0.36,-0.52 -0.72,-1.04 -0.68,-0.96 -1.36,-1.92 -0.64,-1 -1.32,-2.04 l 0,25.84 -5,0 0,-39.72 q 0,-0.08 -0.04,-0.12 0,-0.08 0,-0.16 l 4.6,0 q 0.08,1.44 0.32,2.8 0.28,1.36 0.76,2.64 1.04,2.76 2.52,5.16 1.52,2.4 3.28,4.92 l 0.36,0.52 0.36,-0.52 q 1.76,-2.52 3.24,-4.92 1.52,-2.4 2.56,-5.16 z"
         style="font-style:normal;font-variant:normal;font-weight:normal;font-stretch:normal;font-family:Belladona;-inkscape-font-specification:Belladona"
         id="path4141"
         inkscape:connector-curvature="0" />
      <path
         d="m 70.94875,194.64792 -5.48,0 0,-40 5.48,0 0,40 z"
         style="font-style:normal;font-variant:normal;font-weight:normal;font-stretch:normal;font-family:Belladona;-inkscape-font-specification:Belladona"
         id="path4143"
         inkscape:connector-curvature="0" />
      <path
         d="m 94.872813,154.64792 0,40 -5.04,0 0,-11.04 q 0,-2.4 -0.760001,-4.48 -0.72,-2.12 -1.679999,-3.72 -0.960001,-1.64 -1.880001,-2.72 -0.919999,-1.08 -1.28,-1.44 -0.8,-0.8 -1.759999,-1.44 -0.92,-0.64 -1.92,-1.28 -0.52,-0.32 -1,-0.6 -0.44,-0.28 -0.88,-0.6 l 0,27.32 -5.040001,0 0,-40 5.040001,0 0,2.92 q 0,1.48 0.279999,2.48 0.32,0.96 0.880001,1.68 0.56,0.72 1.399999,1.32 0.880001,0.56 1.960001,1.24 1.079999,0.68 2.239999,1.48 1.2,0.8 2.36,1.96 0.760001,0.72 2.040001,2.28 l 0,-15.36 5.04,0 z"
         style="font-style:normal;font-variant:normal;font-weight:normal;font-stretch:normal;font-family:Belladona;-inkscape-font-specification:Belladona"
         id="path4145"
         inkscape:connector-curvature="0" />
      <path
         d="m 102.355,194.64792 -5.48,0 0,-40 5.48,0 0,40 z"
         style="font-style:normal;font-variant:normal;font-weight:normal;font-stretch:normal;font-family:Belladona;-inkscape-font-specification:Belladona"
         id="path4147"
         inkscape:connector-curvature="0" />
      <path
         d="m 123.03906,160.08792 q 0.48,-1.28 0.72,-2.64 0.28,-1.36 0.36,-2.8 l 4.6,0 0,40 -5.04,0 0,-25.88 q -0.68,1.04 -1.36,2.04 -0.64,0.96 -1.32,1.96 -0.36,0.52 -0.72,1.04 -0.36,0.48 -0.68,1 -0.76,1.08 -1.44,2.16 -0.68,1.08 -1.28,2.24 -0.6,-1.16 -1.28,-2.24 -0.68,-1.08 -1.44,-2.16 -0.32,-0.52 -0.68,-1 -0.36,-0.52 -0.72,-1.04 -0.68,-0.96 -1.36,-1.92 -0.64,-1 -1.32,-2.04 l 0,25.84 -5,0 0,-39.72 q 0,-0.08 -0.04,-0.12 0,-0.08 0,-0.16 l 4.6,0 q 0.08,1.44 0.32,2.8 0.28,1.36 0.76,2.64 1.04,2.76 2.52,5.16 1.52,2.4 3.28,4.92 l 0.36,0.52 0.36,-0.52 q 1.76,-2.52 3.24,-4.92 1.52,-2.4 2.56,-5.16 z"
         style="font-style:normal;font-variant:normal;font-weight:normal;font-stretch:normal;font-family:Belladona;-inkscape-font-specification:Belladona"
         id="path4149"
         inkscape:connector-curvature="0" />
    </g>
  </g>
</svg>
